<?xml version="1.0" encoding="utf-8"?>
<!-- Generator: Adobe Illustrator 22.0.0, SVG Export Plug-In . SVG Version: 6.00 Build 0)  -->
<svg version="1.1" id="Layer_1" xmlns="http://www.w3.org/2000/svg" xmlns:xlink="http://www.w3.org/1999/xlink" x="0px" y="0px"
	 viewBox="0 0 50 50" style="enable-background:new 0 0 50 50;" xml:space="preserve">
<style type="text/css">
	.st0{fill:#E2001A;}
</style>
<g>
	<path class="st0" d="M34.3,32.9c0,0.4-0.1,0.7-0.4,1c-0.3,0.3-0.6,0.4-1,0.4c-0.4,0-0.7-0.1-1-0.4L28,30c-1.3,0.9-2.8,1.4-4.5,1.4
		c-1.1,0-2.1-0.2-3.1-0.6c-1-0.4-1.8-1-2.5-1.7s-1.3-1.5-1.7-2.5c-0.4-1-0.6-2-0.6-3.1s0.2-2.1,0.6-3.1c0.4-1,1-1.8,1.7-2.5
		s1.5-1.3,2.5-1.7c1-0.4,2-0.6,3.1-0.6c1.1,0,2.1,0.2,3.1,0.6c1,0.4,1.8,1,2.5,1.7s1.3,1.5,1.7,2.5c0.4,1,0.6,2,0.6,3.1
		c0,1.6-0.5,3.1-1.4,4.5l3.8,3.8C34.1,32.1,34.3,32.5,34.3,32.9z M27.1,27.1c1-1,1.5-2.2,1.5-3.5S28.1,21,27.1,20
		c-1-1-2.2-1.5-3.5-1.5c-1.4,0-2.6,0.5-3.5,1.5c-1,1-1.5,2.2-1.5,3.5s0.5,2.6,1.5,3.5c1,1,2.2,1.5,3.5,1.5
		C24.9,28.6,26.1,28.1,27.1,27.1z"/>
</g>
</svg>
